xml version="1.0" standalone="no"?>
<!DOCTYPE svg PUBLIC "-//W3C//DTD SVG 20010904//EN"
 "http://www.w3.org/TR/2001/REC-SVG-20010904/DTD/svg10.dtd">
<svg version="1.0" xmlns="http://www.w3.org/2000/svg"
 width="204.000000pt" height="192.000000pt" viewBox="0 0 204.000000 192.000000"
 preserveAspectRatio="xMidYMid meet">
<metadata>
Created by potrace 1.10, written by Peter Selinger 2001-2011
</metadata>
<g transform="translate(0.000000,192.000000) scale(0.100000,-0.100000)"
fill="#000000" stroke="none">
<path d="M265 1898 c-66 -34 -169 -147 -204 -223 -46 -100 -51 -131 -49 -355
1 -187 2 -196 9 -105 16 191 18 266 9 260 -13 -8 -13 -8 6 55 12 40 18 50 25
39 7 -9 7 -1 3 25 -5 28 -4 37 5 32 7 -4 11 0 11 11 0 10 9 36 21 58 24 45 48
73 30 35 -11 -23 -11 -23 3 -7 8 11 12 25 9 33 -3 9 1 12 15 9 16 -3 20 1 17
21 -3 26 5 30 23 12 9 -9 15 -9 24 1 11 10 10 11 -4 6 -10 -4 -18 -3 -18 3 0
5 7 13 16 16 8 3 12 11 8 17 -4 7 -3 9 3 6 5 -3 30 12 54 33 49 44 44 50 -16
18z"/>
<path d="M1720 1915 c0 -3 15 -14 33 -25 20 -13 26 -20 15 -20 -9 0 -20 -5
-24 -12 -5 -8 -2 -9 9 -5 9 3 19 1 23 -4 3 -6 15 -9 25 -6 11 3 19 1 19 -5 0
-5 26 -36 59 -68 39 -38 56 -62 51 -71 -5 -8 5 -33 26 -66 19 -29 34 -63 34
-76 0 -18 2 -19 11 -7 8 11 9 7 5 -17 -3 -18 -1 -33 4 -33 5 0 11 -12 13 -27
2 -16 5 -6 5 22 3 104 -67 246 -165 335 -61 56 -143 104 -143 85z"/>
<path d="M1083 1813 c64 -2 170 -2 235 0 64 1 11 3 -118 3 -129 0 -182 -2
-117 -3z"/>
<path d="M520 1774 c-25 -15 -46 -26 -48 -25 -7 4 -78 -32 -104 -54 -16 -14
-36 -25 -44 -25 -8 0 -14 -4 -14 -10 0 -5 7 -6 17 -3 11 4 14 3 9 -5 -4 -7
-16 -12 -27 -12 -11 0 -18 -4 -15 -9 9 -13 -31 -44 -46 -36 -10 6 -11 5 0 -6
15 -16 16 -33 1 -23 -7 4 -10 1 -7 -7 3 -8 -1 -20 -9 -27 -7 -7 -16 -25 -20
-40 -3 -15 -11 -30 -17 -34 -7 -5 -12 -76 -14 -205 -3 -135 -8 -200 -15 -205
-9 -6 -9 -8 1 -8 7 0 12 -15 12 -40 0 -23 -5 -40 -11 -40 -8 0 -9 -4 0 -13 7
-10 10 -84 7 -243 -2 -126 0 -220 4 -209 5 15 8 10 12 -21 7 -54 54 -150 92
-193 10 -11 15 -25 11 -31 -4 -7 0 -10 11 -8 11 2 18 -2 17 -9 -2 -7 3 -13 10
-13 7 0 19 -9 27 -20 8 -11 20 -20 27 -20 7 0 13 -4 13 -8 0 -13 107 -58 169
-72 39 -9 178 -13 475 -13 484 -1 520 1 503 22 -10 11 -8 13 10 7 25 -8 99 35
85 49 -4 5 -1 5 6 1 9 -5 19 0 29 13 10 16 21 20 36 16 15 -4 18 -3 9 3 -10 6
-8 13 8 27 11 10 20 13 20 7 0 -6 -5 -13 -10 -15 -6 -3 -5 -4 1 -3 7 1 16 12
20 25 6 15 5 20 -3 15 -7 -4 -8 -3 -4 4 4 6 14 8 23 5 12 -5 15 -2 11 8 -6 16
26 62 36 51 4 -3 4 2 0 12 -4 11 -3 17 2 14 5 -3 16 9 25 28 9 18 12 31 8 28
-12 -7 -11 3 4 54 7 23 16 40 19 37 4 -4 5 155 3 352 -1 197 0 324 5 283 4
-46 5 -12 2 90 -2 91 -4 178 -5 193 0 20 -2 24 -8 15 -5 -7 -9 -8 -10 -3 -2
13 -4 22 -14 63 -4 17 -11 32 -16 32 -5 0 -9 7 -9 15 0 8 -4 15 -9 15 -5 0 -7
8 -4 19 3 10 0 22 -6 25 -7 4 -8 1 -5 -8 10 -25 -5 -19 -17 7 -20 45 -38 71
-56 80 -17 9 -17 9 -3 -9 8 -11 1 -5 -16 14 -22 24 -36 32 -45 26 -11 -6 -10
-3 1 11 14 17 14 18 -10 6 l-25 -12 24 20 c26 23 21 28 -8 9 -15 -9 -22 -8
-36 6 -10 9 -23 15 -31 12 -7 -3 -14 0 -16 5 -2 6 -15 12 -30 12 -14 1 -24 5
-21 10 2 4 3 7 1 8 -2 1 -217 3 -478 5 l-475 4 -45 -26z m979 -15 c161 -37
304 -175 346 -334 21 -81 22 -882 1 -960 -41 -153 -159 -280 -303 -325 -61
-19 -92 -20 -522 -20 l-456 1 -66 28 c-119 50 -188 116 -246 231 l-38 75 -3
455 c-3 395 -1 464 14 522 19 80 78 170 149 229 59 49 73 56 155 86 64 22 72
23 495 23 257 0 448 -5 474 -11z"/>
<path d="M567 1630 c-95 -30 -161 -88 -205 -180 l-27 -55 -3 -430 c-3 -420 -3
-431 19 -499 26 -81 93 -157 174 -197 l50 -24 437 -3 c487 -3 502 -1 589 62
25 19 60 56 78 82 61 92 62 107 59 581 l-3 428 -28 56 c-45 92 -105 145 -204
178 -59 20 -83 21 -470 20 -368 0 -414 -2 -466 -19z m593 -14 c179 2 319 0
313 -4 -8 -5 0 -8 20 -8 20 -1 52 -14 86 -37 48 -33 55 -43 26 -37 -5 1 -2 -7
6 -17 9 -10 19 -25 22 -33 5 -13 6 -13 6 1 1 8 -4 20 -11 27 -9 9 -9 12 -1 12
17 0 42 -40 36 -56 -3 -8 1 -14 9 -14 7 0 14 -10 15 -22 1 -11 6 -24 11 -27 6
-3 9 -33 7 -65 -3 -56 -2 -58 12 -35 10 17 12 18 8 4 -4 -11 -7 -185 -7 -388
0 -202 -4 -370 -9 -373 -5 -3 -9 0 -9 7 0 7 -2 10 -5 7 -9 -9 6 -38 16 -32 5
3 1 -9 -11 -28 -23 -39 -27 -61 -5 -32 14 18 15 17 4 -8 -7 -15 -16 -25 -20
-22 -5 3 -9 1 -9 -4 0 -16 -34 -49 -48 -46 -7 1 -8 0 -2 -3 5 -2 10 -12 10
-20 0 -13 -2 -13 -17 -2 -12 10 -15 11 -9 1 9 -15 -41 -59 -61 -54 -8 2 -12
-3 -11 -10 2 -10 -10 -12 -44 -10 -27 2 -48 -1 -48 -7 0 -5 10 -7 23 -4 19 4
19 3 5 -6 -11 -8 -25 -8 -43 -1 -33 13 -38 13 -30 0 4 -7 -2 -9 -17 -5 -31 8
-321 9 -545 2 -101 -3 -183 -2 -183 3 0 4 -8 6 -18 3 -10 -2 -31 1 -47 8 -38
16 -40 16 -67 18 -19 1 -20 3 -8 11 12 8 11 10 -7 10 -23 0 -112 91 -115 119
-2 27 -4 35 -18 66 -13 30 -21 215 -9 215 7 0 6 45 -6 163 -4 42 -3 77 1 77 5
0 5 64 0 147 -5 91 -5 157 1 173 5 14 6 39 2 57 -5 24 -3 30 7 26 8 -3 14 0
14 6 0 6 -4 11 -10 11 -5 0 -10 5 -10 11 0 5 5 7 10 4 9 -5 16 32 11 58 -1 5
3 6 9 2 5 -3 18 12 27 35 10 23 23 38 30 36 7 -3 10 1 7 8 -3 7 2 16 10 19 11
4 13 1 10 -11 -4 -10 -2 -13 3 -7 4 6 19 16 33 23 22 11 22 11 3 6 -13 -3 -23
-1 -23 4 0 6 12 13 28 17 15 3 35 13 44 22 14 12 23 13 49 4 24 -8 30 -8 26 2
-3 9 18 11 97 5 55 -3 247 -4 426 -2z"/>
<path d="M1450 1491 c0 -5 -9 -11 -20 -14 -11 -3 -20 -13 -20 -22 0 -9 -4 -14
-9 -10 -5 3 -13 0 -17 -6 -4 -8 -3 -9 4 -5 17 10 15 -10 -3 -28 -15 -14 -11
-46 6 -46 5 0 9 -6 9 -13 0 -17 33 -44 48 -39 7 2 12 -3 12 -12 0 -9 5 -16 10
-16 6 0 10 5 10 11 0 8 5 8 15 -1 13 -11 19 -7 16 12 -1 10 25 4 42 -10 12
-10 18 -10 31 3 22 23 20 32 -3 11 -16 -14 -19 -15 -24 -2 -3 8 2 20 11 28 11
9 14 10 8 1 -11 -19 -1 -16 15 4 10 11 10 14 2 9 -7 -4 -13 -2 -13 3 0 6 5 11
11 11 8 0 7 6 -2 17 -10 11 -10 14 -1 9 18 -11 15 4 -9 43 -20 32 -18 60 2 31
9 -13 10 -13 6 0 -2 8 -11 15 -21 15 -9 0 -21 6 -25 14 -6 9 -11 10 -15 2 -5
-8 -13 -8 -26 -1 -23 12 -50 13 -50 1z m95 -42 c46 -44 10 -132 -55 -132 -68
0 -106 86 -57 130 40 37 75 38 112 2z"/>
<path d="M945 1340 c-51 -10 -108 -32 -127 -48 -8 -6 -18 -9 -21 -5 -4 3 -7 1
-7 -5 0 -21 -39 -35 -58 -20 -15 12 -16 11 -3 -4 11 -15 11 -19 -2 -24 -9 -3
-19 -14 -22 -24 -4 -11 -14 -16 -30 -14 -22 2 -24 0 -14 -18 8 -14 8 -18 0
-14 -6 4 -13 -4 -17 -19 -3 -14 -13 -25 -23 -25 -13 0 -13 -2 -2 -9 12 -7 12
-13 0 -40 -8 -17 -17 -31 -21 -31 -3 0 -9 -24 -13 -52 -10 -86 -12 -198 -3
-198 4 0 8 -11 8 -25 0 -13 13 -47 30 -75 16 -28 30 -55 30 -61 0 -6 5 -7 10
-4 9 6 14 -8 11 -28 -1 -5 3 -5 9 -2 7 4 14 -2 17 -14 3 -11 14 -23 24 -26 11
-4 17 -11 14 -16 -4 -5 -1 -9 4 -9 6 0 20 -8 31 -18 11 -9 24 -17 28 -18 17
-1 62 -28 62 -36 0 -5 6 -8 13 -6 6 1 33 -6 60 -16 26 -11 50 -16 54 -12 3 3
-1 6 -10 6 -9 0 -18 4 -22 9 -3 6 10 5 31 -1 33 -9 100 -5 143 9 14 4 14 3 1
-6 -9 -6 -10 -11 -3 -11 22 0 43 12 37 22 -4 6 2 8 15 3 11 -3 21 -2 21 3 0 5
8 9 18 8 9 0 16 5 14 12 -1 8 2 11 7 8 16 -10 70 15 64 30 -4 10 0 12 11 8 12
-5 15 -2 10 10 -5 12 -2 15 10 10 11 -4 19 2 25 18 10 28 41 57 41 39 0 -6 -4
-11 -9 -11 -5 0 -12 -8 -15 -17 -6 -15 -5 -15 13 1 27 24 74 126 73 155 -2 20
0 21 13 11 12 -10 15 -9 15 8 0 11 3 29 6 39 5 15 4 15 -5 3 -9 -13 -11 -13
-11 1 0 9 3 18 6 22 14 13 13 109 -1 162 -8 31 -12 62 -9 69 3 7 -2 19 -11 26
-8 7 -15 21 -15 32 0 10 -4 17 -9 14 -5 -3 -12 1 -15 10 -9 23 -7 31 3 15 6
-9 8 -2 7 20 -1 31 -4 34 -34 34 -26 -1 -34 4 -38 21 -4 14 -11 21 -20 17 -8
-3 -14 -1 -14 5 0 5 -13 15 -30 22 -16 7 -28 17 -27 23 1 6 -16 16 -38 23 -22
6 -39 16 -38 22 1 5 -8 10 -20 10 -12 0 -60 2 -107 5 -47 3 -103 2 -125 -3z
m229 -36 c172 -53 296 -225 296 -408 0 -121 -42 -219 -129 -306 -111 -111
-260 -153 -406 -115 -130 34 -230 115 -286 232 -29 60 -34 80 -37 170 -5 121
8 168 69 258 109 160 303 227 493 169z"/>
<path d="M920 1183 c-65 -23 -151 -114 -173 -182 -43 -134 -1 -275 106 -354
123 -91 294 -81 399 24 69 69 92 125 92 224 1 67 -4 89 -27 136 -53 109 -152
169 -277 168 -41 0 -95 -8 -120 -16z m213 -28 c4 -8 26 -18 48 -21 22 -4 42
-10 45 -15 3 -5 -3 -7 -13 -4 -10 3 -6 -1 9 -8 20 -9 25 -16 17 -27 -8 -13
-10 -13 -19 0 -6 9 -10 10 -10 3 0 -11 26 -43 35 -43 3 0 2 6 -1 14 -3 8 0 17
7 21 14 9 51 -34 44 -52 -6 -18 5 -44 16 -37 13 8 11 -10 -3 -25 -11 -11 -10
-12 1 -6 11 6 13 3 9 -13 -4 -14 -2 -20 4 -15 8 4 9 -5 3 -28 -5 -19 -8 -52
-7 -74 1 -33 -1 -36 -8 -17 -5 12 -11 22 -13 22 -2 0 -2 -10 0 -22 5 -30 -30
-93 -51 -92 -9 1 -13 -2 -10 -7 5 -9 -11 -13 -31 -9 -5 1 -6 -2 -2 -7 12 -11
30 -11 40 2 5 6 7 4 4 -5 -2 -8 -13 -15 -24 -15 -12 0 -30 -8 -40 -18 -11 -9
-27 -17 -36 -17 -9 0 -19 -5 -22 -10 -5 -8 -12 -7 -23 2 -12 10 -14 10 -8 1 4
-7 4 -13 -1 -14 -4 0 -30 -2 -56 -5 -33 -3 -54 0 -70 11 -12 8 -28 15 -35 15
-8 0 -26 9 -42 20 -15 11 -31 16 -35 12 -4 -4 1 6 11 22 l19 29 -30 -19 c-27
-16 -28 -17 -16 -1 12 15 12 17 -1 12 -9 -4 -19 4 -28 19 -7 14 -17 23 -21 20
-5 -3 -6 1 -4 9 3 7 -2 30 -10 51 -18 43 -24 134 -9 144 6 4 11 18 12 32 0 14
6 26 12 28 5 2 10 10 10 18 0 8 5 14 10 14 6 0 10 5 10 12 0 6 11 26 26 45 21
27 30 32 52 27 22 -4 24 -3 12 6 -12 9 -10 11 12 7 16 -2 29 1 32 9 6 17 39
22 111 18 39 -3 62 -9 68 -19z"/>
<path d="M1703 1120 c0 -47 2 -66 4 -42 2 23 2 61 0 85 -2 23 -4 4 -4 -43z"/>
<path d="M2016 928 c-5 -573 -4 -545 -17 -553 -5 -4 -9 -19 -9 -35 0 -23 -4
-28 -17 -24 -12 4 -14 3 -6 -3 15 -11 2 -67 -15 -69 -22 -3 -23 -4 -12 -23 7
-14 7 -22 -2 -27 -7 -5 -9 -2 -3 7 4 8 -5 1 -19 -16 -15 -16 -31 -40 -36 -53
-6 -13 -14 -20 -20 -17 -5 3 -10 2 -10 -3 0 -4 -17 -18 -38 -29 -41 -24 -87
-71 -77 -81 19 -20 161 99 215 181 80 122 79 116 80 722 0 294 -2 535 -4 535
-3 0 -7 -231 -10 -512z"/>
<path d="M14 720 c0 -135 2 -190 3 -122 2 67 2 177 0 245 -1 67 -3 12 -3 -123z"/>
<path d="M10 423 c0 -58 31 -155 74 -228 49 -83 165 -184 198 -173 7 3 -6 15
-28 28 -34 22 -104 86 -104 97 0 2 -9 13 -20 25 -11 12 -25 34 -32 49 -7 15
-15 26 -19 24 -3 -3 -4 8 -2 23 3 18 2 23 -5 14 -6 -9 -12 -1 -21 28 -6 22 -9
45 -6 50 3 6 1 10 -4 10 -6 0 -11 17 -11 38 0 20 -5 44 -10 52 -7 11 -10 0
-10 -37z"/>
</g>
</svg>
